<svg width="98" height="101" viewBox="0 0 98 101" fill="none" xmlns="http://www.w3.org/2000/svg">
<path d="M31.8143 56.4168C33.4981 56.4168 35.0994 55.6877 36.2074 54.416C36.7389 53.8062 36.6754 52.8809 36.0654 52.3494C35.4555 51.8178 34.5303 51.8812 33.9987 52.4914C33.4471 53.1244 32.6508 53.4873 31.8141 53.4873C30.9774 53.4873 30.1811 53.1244 29.6295 52.4914C29.0979 51.8814 28.1727 51.818 27.5627 52.3494C26.953 52.8809 26.8893 53.8062 27.4207 54.416C28.5291 55.6875 30.1303 56.4168 31.8143 56.4168Z" fill="#153862"/>
<path d="M58.9354 56.4168C60.6192 56.4168 62.2206 55.6875 63.3286 54.416C63.86 53.8061 63.7965 52.8809 63.1866 52.3492C62.5766 51.8178 61.6514 51.8813 61.12 52.4914C60.5684 53.1242 59.7721 53.4871 58.9354 53.4871C58.0985 53.4871 57.3022 53.1242 56.7508 52.4914C56.2194 51.8815 55.294 51.818 54.6843 52.3492C54.0743 52.8809 54.0108 53.8061 54.5423 54.416C55.6503 55.6875 57.2514 56.4168 58.9354 56.4168Z" fill="#153862"/>
<path d="M45.3748 60.6552C46.7792 60.6552 47.9177 59.441 47.9177 57.9431C47.9177 56.4453 46.7792 55.2312 45.3748 55.2312C43.9705 55.2312 42.8318 56.4455 42.8318 57.9431C42.8318 59.4412 43.9705 60.6552 45.3748 60.6552Z" fill="black"/>
<path d="M94.9833 18.1525C94.9798 18.1525 94.9763 18.1525 94.9726 18.1525H94.9515C87.5781 18.1525 82.0308 11.283 83.6804 4.02988C84.2193 1.66074 81.7968 -0.272656 79.6187 0.778125C74.5378 3.2291 71.3205 8.45702 71.422 14.0967C71.4896 17.8506 73.0033 21.392 75.6841 24.0687C81.8161 30.1914 91.8622 29.6302 97.2583 22.8291C98.762 20.9336 97.4054 18.1525 94.9833 18.1525ZM85.7109 25.3865C79.5577 25.2849 74.4617 20.1967 74.3509 14.0439C74.2704 9.57753 76.7992 5.43476 80.8058 3.45879C78.8044 12.4955 85.6982 21.0529 94.9038 21.0822C92.6493 23.8781 89.3048 25.4445 85.7109 25.3865Z" fill="#153862"/>
<path d="M89.2847 63.8864C90.0937 63.8864 90.7495 63.2305 90.7495 62.4215V42.0645C90.7495 35.8356 85.682 30.7683 79.4532 30.7683H68.5654C62.2982 24.8948 54.055 21.664 45.5586 21.664C37.6646 21.664 32.6177 20.636 29.774 19.7739C26.1566 18.6772 22.2896 20.014 20.1504 23.1003C18.8349 24.9983 17.3898 27.5206 16.0805 30.7684H11.2963C5.06738 30.7684 0 35.836 0 42.0647V49.0546C0 49.8635 0.655859 50.5194 1.46484 50.5194C2.27383 50.5194 2.92968 49.8635 2.92968 49.0546V42.0647C2.92968 37.4515 6.683 33.6979 11.2965 33.6979H15.0099C13.3023 38.8806 12.4017 44.3419 12.0523 49.8093C10.9041 51.3591 10.2236 53.2753 10.2236 55.3477C10.2236 60.6735 14.7176 64.9817 20.1195 64.652C21.0812 67.2653 22.4467 69.7319 24.1777 71.9551C23.6283 72.475 23.1513 73.0702 22.7637 73.7251H15.3851C11.8168 73.7251 8.91386 76.628 8.91386 80.1963V82.3018C5.41035 81.2784 2.92968 78.0696 2.92968 74.2768V54.9135C2.92968 54.1046 2.27383 53.4487 1.46484 53.4487C0.655859 53.4487 0 54.1046 0 54.9135V74.2768C0 77.11 1.05371 79.82 2.96718 81.9069C4.5832 83.6694 6.69394 84.859 9.00507 85.3356C9.28593 87.0045 10.2066 88.4592 11.507 89.4358V99.0201C11.507 99.8291 12.1629 100.485 12.9719 100.485H77.7775C78.5865 100.485 79.2423 99.8291 79.2423 99.0201V89.4358C80.5427 88.4592 81.4634 87.0047 81.7445 85.3356C84.0556 84.859 86.1663 83.6694 87.7823 81.9069C89.6958 79.8198 90.7495 77.1102 90.7495 74.2768V68.2807C90.7495 67.4717 90.0937 66.8159 89.2847 66.8159C88.4757 66.8159 87.8198 67.4717 87.8198 68.2807V74.2768C87.8198 78.0694 85.3392 81.2782 81.8357 82.3018V80.1963C81.8357 76.628 78.9327 73.7251 75.3644 73.7251H67.9857C67.6521 73.1614 67.2525 72.6416 66.7972 72.1762C68.6064 69.895 70.0236 67.3538 71.0111 64.6532C76.4183 64.9772 80.8937 60.6569 80.8937 55.3479C80.8937 53.0665 80.0687 50.9751 78.703 49.3528C77.6759 43.6624 75.2099 38.2784 71.3468 33.6981H79.453C84.0665 33.6981 87.8198 37.4515 87.8198 42.0649V62.4217C87.82 63.2305 88.4759 63.8864 89.2847 63.8864ZM22.5582 24.769C23.9615 22.7444 26.514 21.8468 28.9238 22.5774C31.9572 23.4972 37.3054 24.5935 45.5584 24.5935C59.3623 24.5935 71.2794 33.794 75.074 46.7096C73.7388 46.1661 72.3335 45.9583 71.0158 46.0403C70.1802 43.7509 69.0474 41.603 67.6324 39.6233C66.4488 37.9673 65.5884 36.9307 64.3154 36.2444C62.8156 35.4356 61.04 35.2534 59.3779 35.769C46.083 39.8987 44.2224 33.1745 33.1006 33.995C29.4963 34.2608 26.1674 36.0741 23.9668 38.9702C22.3775 41.062 21.0433 43.4393 20.0918 46.0399C18.9045 45.9669 17.5928 46.1364 16.3611 46.5827C16.3611 46.5827 16.3609 46.5827 16.3607 46.5827C15.9779 46.7216 15.574 46.8999 15.2156 47.0878C16.008 39.4013 18.1713 31.0989 22.5582 24.769ZM19.2221 61.7338C15.8469 61.5639 13.1529 58.7645 13.1529 55.3479C13.1529 51.804 16.016 49.0991 19.2086 48.9632C18.2187 53.0796 18.1961 57.5202 19.2221 61.7338ZM26.2998 40.7429C27.9922 38.5155 30.5496 37.121 33.3164 36.9169C43.5166 36.1659 45.9595 43.0042 60.2472 38.5671C61.4878 38.1817 62.8226 38.5196 63.7206 39.4153C63.9966 39.6852 64.6779 40.5573 64.9335 40.8985C71.5025 49.7012 71.3138 61.8848 64.4046 70.4805C63.3755 70.004 62.1986 69.7342 61.0068 69.7335C61.0062 69.7335 61.0058 69.7335 61.0052 69.7335C58.1328 69.7335 55.4687 71.2672 54.0201 73.7251H36.73C35.2986 71.2971 32.6449 69.7335 29.7447 69.7335C28.7222 69.7335 27.6631 69.9272 26.642 70.3518C19.7853 61.7305 19.6062 49.5544 26.2998 40.7429ZM64.5054 79.5182H57.5048C56.5798 79.5182 55.8273 78.7657 55.8273 77.8407C55.8273 74.9514 58.1843 72.6629 61.005 72.6629H61.0052C65.4763 72.6629 67.4851 78.1293 65.3042 79.3155C65.063 79.4467 64.7904 79.5182 64.5054 79.5182ZM33.2449 79.5182H26.2443C25.3179 79.5182 24.5668 78.7643 24.5668 77.8407C24.5668 74.9762 26.9035 72.6629 29.7445 72.6629C32.5853 72.6629 34.9222 74.9717 34.9222 77.8407C34.9222 78.7657 34.1697 79.5182 33.2449 79.5182ZM76.3128 90.6598V97.5553H14.4369V90.6596C14.4564 90.6614 14.9006 90.7295 15.3851 90.7295H75.3646C75.765 90.7297 76.0316 90.6899 76.3128 90.6598ZM69.0263 76.6545H75.3646C77.3206 76.6545 78.9064 78.2461 78.9064 80.1961V84.2582C78.9064 86.2393 77.2861 87.8 75.3646 87.8H15.3851C14.9217 87.8 14.4385 87.7065 13.9824 87.509C11.6457 86.4965 11.8521 84.0922 11.8435 84.0643V80.1961C11.8435 78.2432 13.4324 76.6545 15.3851 76.6545H21.7234C21.6304 77.286 21.6383 77.8182 21.6373 77.8407C21.6373 80.3809 23.7039 82.4477 26.2443 82.4477H33.2449C35.7851 82.4477 37.8519 80.3809 37.8519 77.8407C37.8519 77.4606 37.8129 76.976 37.7658 76.6545H52.9839C52.9345 76.9915 52.8978 77.4702 52.8978 77.8409C52.8978 80.3811 54.9646 82.4479 57.5048 82.4479C64.8287 82.4301 64.5939 82.4885 65.206 82.3948C67.3951 82.0594 69.112 80.167 69.112 77.8321C69.1117 77.4541 69.0724 76.9676 69.0263 76.6545ZM71.9003 61.7337C72.9005 57.5975 72.9124 53.1483 71.8999 48.9622C75.2656 49.1341 77.9642 51.926 77.9642 55.3479C77.9642 58.7628 75.2732 61.561 71.9003 61.7337Z" fill="black"/>
</svg>
