<svg width="88" height="101" viewBox="0 0 88 101" fill="none" xmlns="http://www.w3.org/2000/svg">
<path d="M40.8589 24.7034C40.0499 24.7034 39.394 25.359 39.394 26.1682V28.5313C39.394 29.3403 40.0499 29.9961 40.8589 29.9961C41.6679 29.9961 42.3237 29.3403 42.3237 28.5313V26.1682C42.3237 25.359 41.6679 24.7034 40.8589 24.7034Z" fill="#153862"/>
<path d="M53.6754 34.341C55.9582 34.341 57.8156 32.3408 57.8156 29.8824C57.8156 27.424 55.9584 25.4238 53.6754 25.4238C51.3924 25.4238 49.5352 27.4238 49.5352 29.8824C49.5352 32.341 51.3926 34.341 53.6754 34.341ZM53.6754 28.3535C54.3314 28.3535 54.8859 29.0535 54.8859 29.8824C54.8859 30.7113 54.3316 31.4113 53.6754 31.4113C53.0191 31.4113 52.4648 30.7111 52.4648 29.8824C52.4648 29.0537 53.0193 28.3535 53.6754 28.3535Z" fill="black"/>
<path d="M66.4922 29.9961C67.3012 29.9961 67.957 29.3403 67.957 28.5313V26.1682C67.957 25.359 67.3012 24.7034 66.4922 24.7034C65.6832 24.7034 65.0273 25.359 65.0273 26.1682V28.5313C65.0273 29.3403 65.6832 29.9961 66.4922 29.9961Z" fill="#153862"/>
<path d="M5.76308 88.5977L3.1834 94.5557C1.97031 97.358 4.02773 100.485 7.07734 100.485H11.017C13.3689 100.485 15.4928 99.09 16.4271 96.9318L19.9105 88.8861H26.9707C27.7797 88.8861 28.4355 88.2303 28.4355 87.4213C28.4355 86.6123 27.7797 85.9565 26.9707 85.9565C24.2486 85.9565 10.5978 85.9565 7.86855 85.9565C5.14511 85.9565 2.92949 83.7408 2.92949 81.0174C2.92949 78.294 5.14511 76.0783 7.86855 76.0783C37.1511 76.0795 51.105 76.0789 64.5115 76.0789C65.4042 76.0789 65.7783 75.3346 65.7978 75.3151C65.798 75.3147 65.7984 75.3141 65.7986 75.3137L73.8183 61.5289C75.1878 59.1748 78.2171 58.3743 80.5708 59.7436C82.93 61.1161 83.7292 64.1366 82.3562 66.4961L72.4634 83.5008C71.5824 85.0152 69.9464 85.9563 68.1945 85.9563C60.9494 85.9563 35.6052 85.9563 32.8302 85.9563C32.0213 85.9563 31.3654 86.6121 31.3654 87.4211C31.3654 88.2301 32.0213 88.8859 32.8302 88.8859H53.8509L57.3343 96.9316C58.2689 99.09 60.3925 100.485 62.7445 100.485H66.6841C68.1179 100.485 69.4437 99.7691 70.2308 98.5707C71.0179 97.3723 71.1476 95.8713 70.5781 94.5555L68.1234 88.8859H68.1947C70.9861 88.8859 73.5921 87.3871 74.996 84.974L84.8888 67.9694C87.0757 64.2104 85.8036 59.3983 82.0443 57.2112C78.2939 55.0293 73.4679 56.3055 71.2861 60.0557L68.3593 65.0866C68.3761 64.9713 68.3956 64.8565 68.4115 64.7409C68.4117 64.7401 68.4118 64.7391 68.412 64.7381C69.1908 59.1063 68.9527 54.3315 68.5523 51.0719C72.6161 48.4708 75.7872 44.6846 77.6476 40.26C82.8345 40.485 87.2134 36.319 87.2134 31.0905C87.2134 29.4876 86.7993 27.98 86.0741 26.6673C85.1118 20.0612 81.9407 13.855 77.1216 9.16493C76.5419 8.60068 75.6144 8.61318 75.0503 9.19306C74.4861 9.77274 74.4986 10.7003 75.0784 11.2643C78.4081 14.505 80.8687 18.5444 82.2329 22.9327C80.8109 22.1979 79.2365 21.8567 77.6603 21.9204C75.0923 15.796 70.3113 12.7835 64.8435 12.7835H46.7388C41.883 12.7835 37.4078 15.3692 35.0758 19.5507C34.6408 20.33 34.222 21.2069 33.922 21.9204C32.3867 21.8596 30.8119 22.1774 29.3508 22.9321C30.1414 20.3778 31.3013 17.9354 32.7883 15.7184C34.0455 13.8436 34.3918 11.3872 33.217 8.82821C32.0375 6.26728 33.9949 3.41455 36.7523 3.41455H55.7906C61.0888 3.41455 66.2413 4.92373 70.6909 7.77861C71.3718 8.21532 72.2779 8.01767 72.715 7.33681C73.1519 6.65595 72.954 5.7497 72.2732 5.31279C67.3503 2.15439 61.6509 0.484863 55.7906 0.484863H36.7523C31.8244 0.484863 28.4152 5.62021 30.6273 10.2075C31.2277 11.4536 31.123 12.9401 30.3541 14.0868C27.8353 17.8427 26.1664 22.1837 25.5129 26.6577C24.7844 27.9727 24.3679 29.4839 24.3679 31.0907C24.3679 34.0354 25.7734 36.7495 28.0718 38.4571C27.6084 39.0846 27.2642 39.8012 27.0629 40.5796C26.6498 42.1758 26.883 43.8374 27.7197 45.2581C29.6494 48.535 32.9279 53.3184 37.5886 57.4971C38.5453 58.3549 39.7244 58.8799 40.9685 59.0288V63.0729H34.5586C33.9033 60.4243 31.5183 58.4196 28.6836 58.3657C27.1592 58.3368 25.7035 58.8778 24.5484 59.8942C23.4709 58.9438 22.084 58.394 20.5933 58.3657C17.0935 58.2991 14.3014 61.2264 14.3014 64.6438V69.341C14.3014 70.7532 14.7389 72.0647 15.4844 73.1489H7.86874C3.52988 73.1489 0 76.6787 0 81.0176C0 84.627 2.44375 87.6744 5.76308 88.5977ZM16.7181 88.8861L13.7387 95.7678C13.2685 96.8535 12.2004 97.5551 11.0172 97.5551H7.07734C6.13574 97.5551 5.49414 96.5926 5.87206 95.7197L8.83066 88.8861H16.7181ZM67.8894 95.7197C68.0685 96.133 68.0292 96.5861 67.782 96.9627C67.5347 97.3393 67.1345 97.5551 66.6841 97.5551H62.7445C61.5613 97.5551 60.4931 96.8535 60.023 95.7678L57.0435 88.8861H64.9308L67.8894 95.7197ZM65.2511 66.0026C64.8306 68.4399 64.2327 70.834 63.466 73.1489H34.7377V66.0026H65.2511ZM78.6732 37.3067C79.7361 33.4007 79.8105 29.0587 78.6763 24.8776C81.8581 25.1938 84.2835 27.9022 84.2835 31.0907C84.2835 34.3206 81.8198 36.9862 78.6732 37.3067ZM64.8427 15.7132C68.605 15.7132 72.1161 17.6964 73.949 20.9798C80.3452 32.4389 74.549 46.8655 62.1867 50.8629C61.6806 50.2358 58.4167 46.8663 55.5792 40.5477C54.1759 37.4227 50.5134 36.054 47.4193 37.4456C44.3214 38.8368 42.913 42.4788 44.3171 45.6053C44.9054 46.9153 45.6084 48.3223 46.2734 49.5395C41.1552 46.871 37.533 42.3104 35.9496 37.2477C35.9496 37.2475 35.9496 37.2473 35.9494 37.2469C35.349 35.3266 35.0847 33.5676 35.0166 31.5725C34.9324 27.8384 35.8582 24.1557 37.6367 20.9721C39.449 17.7282 42.9365 15.7132 46.7382 15.7132H64.8427ZM58.132 57.894C57.0287 58.1541 55.8003 57.8364 54.9474 56.8811C51.9914 53.5725 49.1642 49.2477 46.9896 44.4053C46.2554 42.7702 46.9841 40.8528 48.6195 40.1184C50.2388 39.3909 52.1664 40.0997 52.9066 41.7483C54.6253 45.5754 56.9744 49.419 59.7997 52.5772C59.8001 52.5776 59.8003 52.578 59.8007 52.5784C61.4538 54.428 60.4829 57.3393 58.132 57.894ZM32.9045 24.8776C31.9814 28.2798 31.8011 32.2151 32.589 35.97C31.8859 36.021 31.1584 36.1993 30.4535 36.5204C28.5166 35.4173 27.2978 33.3536 27.2978 31.0905C27.2978 27.8739 29.7527 25.1928 32.9045 24.8776ZM39.5443 55.3155C35.1631 51.3875 32.0687 46.8696 30.2441 43.7713C28.8972 41.484 30.7345 38.5977 33.408 38.909C34.8722 43.0751 37.4998 46.7661 40.9685 49.5608V56.059C40.4455 55.9368 39.9558 55.6844 39.5443 55.3155ZM43.8982 51.5809C45.4681 52.4971 47.1476 53.2248 48.8291 53.7463C50.1041 55.6389 51.3794 57.2745 52.7818 58.8545C55.9451 62.4114 61.872 61.162 63.2847 56.542C63.3324 56.2733 63.756 55.1299 63.4396 53.537C64.2312 53.2672 65.0722 52.9254 65.773 52.6006C66.0361 55.3262 66.139 58.9211 65.6691 63.0729H43.8982C43.8982 59.0733 43.8982 55.651 43.8982 51.5809ZM28.6279 61.295C30.3814 61.3282 31.808 62.7828 31.808 64.5377V73.1489H29.1158C27.0281 73.1412 25.3322 71.4397 25.322 69.3596C25.322 69.3533 25.3213 69.3473 25.3213 69.341C25.3215 64.25 25.3121 64.5577 25.3439 64.2721C25.5328 62.6088 26.9379 61.2621 28.6279 61.295ZM17.231 69.3409V64.6436C17.231 61.6868 20.8058 60.1389 22.8392 62.3162C22.1244 64.1112 22.49 65.2868 22.3916 69.3409C22.3916 70.6565 22.7885 72.0119 23.5717 73.1487H21.0265C18.9324 73.1414 17.231 71.4366 17.231 69.3409Z" fill="black"/>
</svg>
