<svg width="84" height="95" viewBox="0 0 84 95" fill="none" xmlns="http://www.w3.org/2000/svg">
<path d="M82.6267 66.3113C81.8687 66.3113 81.2541 66.9258 81.2541 67.6838V84.3116C81.2541 88.242 78.0564 91.4397 74.1258 91.4397H9.87329C5.94282 91.4397 2.74512 88.242 2.74512 84.3116V33.5706C2.74512 32.8125 2.13076 32.198 1.37256 32.198C0.614542 32.198 0 32.8125 0 33.5706V84.3118C0 89.7559 4.42916 94.185 9.87329 94.185H74.1258C79.5701 94.185 83.9993 89.7559 83.9993 84.3118V67.684C83.9993 66.9258 83.3847 66.3113 82.6267 66.3113Z" fill="black"/>
<path d="M74.1265 0.484863H9.87402C4.4299 0.484863 0.000732422 4.91403 0.000732422 10.3583V28.0803C0.000732422 28.8383 0.615274 29.4529 1.37329 29.4529C2.1315 29.4529 2.74585 28.8383 2.74585 28.0803V10.3583C2.74585 6.42769 5.94356 3.22998 9.87402 3.22998H74.1265C78.0572 3.22998 81.2549 6.42769 81.2549 10.3583V62.1937C81.2549 62.9518 81.8694 63.5663 82.6274 63.5663C83.3854 63.5663 84 62.9518 84 62.1937V10.3583C84 4.91403 79.5708 0.484863 74.1265 0.484863V0.484863Z" fill="black"/>
<path d="M45.3379 12.3181C46.0959 12.3181 46.7104 11.7036 46.7104 10.9456C46.7104 10.1875 46.0959 9.573 45.3379 9.573H38.6606C37.9024 9.573 37.2881 10.1875 37.2881 10.9456V26.7924C37.2881 27.5504 37.9024 28.165 38.6606 28.165H45.3379C46.0959 28.165 46.7104 27.5504 46.7104 26.7924C46.7104 26.0344 46.0959 25.4199 45.3379 25.4199H40.0332V20.2415H44.8454C45.6034 20.2415 46.218 19.6269 46.218 18.8689C46.218 18.1109 45.6034 17.4963 44.8454 17.4963H40.0332V12.3181H45.3379Z" fill="#153862"/>
<path d="M30.4479 31.0193H24.9653C24.2071 31.0193 23.5928 31.6338 23.5928 32.3918V45.9191C23.5928 46.6771 24.2071 47.2916 24.9653 47.2916C25.7234 47.2916 26.3379 46.6771 26.3379 45.9191V40.3999H30.0123C30.7705 40.3999 31.3849 39.7854 31.3849 39.0274C31.3849 38.2693 30.7705 37.6548 30.0123 37.6548H26.3379V33.7644H30.4479C31.2059 33.7644 31.8205 33.1499 31.8205 32.3918C31.8205 31.6338 31.2059 31.0193 30.4479 31.0193Z" fill="black"/>
<path d="M55.1129 30.9194H51.3186C50.569 30.9194 49.946 31.5276 49.946 32.292V45.919C49.946 46.677 50.5604 47.2915 51.3186 47.2915C52.0766 47.2915 52.6912 46.677 52.6912 45.919V41.365C53.5301 41.3604 54.5551 41.3557 55.1129 41.3557C58.0317 41.3557 60.4062 39.0148 60.4062 36.1375C60.4062 33.2603 58.0315 30.9194 55.1129 30.9194ZM55.1129 38.6105C54.5591 38.6105 53.5469 38.6151 52.7098 38.6197C52.7053 37.7577 52.7005 36.7052 52.7005 36.1375C52.7005 35.6595 52.6976 34.565 52.6952 33.6646H55.1129C56.4943 33.6646 57.6611 34.797 57.6611 36.1375C57.6611 37.4781 56.4943 38.6105 55.1129 38.6105Z" fill="black"/>
<path d="M65.692 53.2156H59.692C58.934 53.2156 58.3195 53.8301 58.3195 54.5881C58.3195 55.3462 58.934 55.9607 59.692 55.9607H63.1595L58.3471 63.3465C57.7529 64.2585 58.409 65.4683 59.4971 65.4683H65.8398C66.5979 65.4683 67.2124 64.8538 67.2124 64.0958C67.2124 63.3378 66.5979 62.7232 65.8398 62.7232H62.0296L66.842 55.3374C67.436 54.4256 66.7798 53.2156 65.692 53.2156Z" fill="black"/>
<path d="M18.1592 53.2156C17.4012 53.2156 16.7866 53.8301 16.7866 54.5881C16.7866 55.3462 17.4012 55.9607 18.1592 55.9607H19.4014V64.0958C19.4014 64.8538 20.0158 65.4683 20.774 65.4683C21.532 65.4683 22.1466 64.8538 22.1466 64.0958V55.9607H23.4099C24.1679 55.9607 24.7824 55.3462 24.7824 54.5881C24.7824 53.8301 24.1679 53.2156 23.4099 53.2156H18.1592Z" fill="black"/>
<path d="M41.7262 65.4683C45.1044 65.4683 47.8526 62.7201 47.8526 59.342C47.8526 55.9638 45.1044 53.2156 41.7262 53.2156C38.3481 53.2156 35.5999 55.9638 35.5999 59.342C35.5999 62.7201 38.3481 65.4683 41.7262 65.4683ZM41.7262 55.9607C43.5907 55.9607 45.1075 57.4775 45.1075 59.342C45.1075 61.2064 43.5905 62.7232 41.7262 62.7232C39.8619 62.7232 38.345 61.2064 38.345 59.342C38.345 57.4775 39.8619 55.9607 41.7262 55.9607Z" fill="black"/>
<path d="M14.5393 74.0647C13.7813 74.0647 13.1667 74.6792 13.1667 75.4373V83.7127C13.1667 84.3816 13.649 84.9529 14.3082 85.0657C14.566 85.1096 16.3716 85.0913 17.4471 85.0853C18.2051 85.0811 18.8162 84.463 18.812 83.705C18.8078 82.947 18.1883 82.3319 17.4318 82.3401C16.9188 82.3431 16.38 82.3453 15.9117 82.3464V75.4374C15.9119 74.6792 15.2973 74.0647 14.5393 74.0647Z" fill="black"/>
<path d="M46.6941 75.5127V83.7195C46.6941 84.4775 47.3086 85.0921 48.0667 85.0921H51.5248C52.2828 85.0921 52.8973 84.4775 52.8973 83.7195C52.8973 82.9615 52.2828 82.347 51.5248 82.347H49.4392V80.9887H51.2697C52.0279 80.9887 52.6422 80.3741 52.6422 79.6161C52.6422 78.8581 52.0279 78.2435 51.2697 78.2435H49.4392V76.8853H51.5248C52.2828 76.8853 52.8973 76.2707 52.8973 75.5127C52.8973 74.7547 52.2828 74.1401 51.5248 74.1401H48.0667C47.3086 74.1401 46.6941 74.7547 46.6941 75.5127Z" fill="black"/>
<path d="M62.5865 83.8248C62.642 84.548 63.2432 85.0925 63.9538 85.0925C64.2072 85.0925 65.7588 85.0841 66.3045 85.0745C68.9279 85.0286 70.8321 82.7686 70.8321 79.7011C70.8321 76.4765 68.9762 74.3098 66.2137 74.3098H63.9375C63.5729 74.3098 63.2236 74.4548 62.9661 74.7128C62.5521 75.1273 62.5836 75.602 62.5651 75.6908C62.5737 84.091 62.5453 83.5861 62.5865 83.8248ZM66.2139 77.0549C67.9521 77.0549 68.0872 79.0803 68.0872 79.7011C68.0872 80.9936 67.5212 82.3076 66.2568 82.3298C66.0337 82.3336 65.6832 82.3371 65.3219 82.3397C65.3135 79.6105 65.3183 80.4175 65.3126 77.0551H66.2139V77.0549Z" fill="black"/>
<path d="M32.8541 74.0647H30.5479C29.7939 74.0647 29.1753 74.6787 29.1753 75.4373V83.7197C29.1753 84.4777 29.7898 85.0922 30.5479 85.0922C31.3061 85.0922 31.9204 84.4777 31.9204 83.7197V81.4873C32.2791 81.4857 32.6294 81.4844 32.8541 81.4844C34.925 81.4844 36.6096 79.8201 36.6096 77.7746C36.6096 75.7292 34.925 74.0647 32.8541 74.0647ZM32.8541 78.7393C32.6309 78.7393 32.2853 78.7406 31.9292 78.7422C31.9276 78.3698 31.9254 77.2016 31.9244 76.8098H32.8541C33.4019 76.8098 33.8645 77.2516 33.8645 77.7745C33.8645 78.2973 33.4019 78.7393 32.8541 78.7393Z" fill="black"/>
</svg>
