<svg width="100" height="101" viewBox="0 0 100 101" fill="none" xmlns="http://www.w3.org/2000/svg">
<path d="M78.4148 71.165C82.6528 65.3578 85.1562 58.2082 85.1562 50.4848C85.1562 31.0996 69.3852 15.3286 50 15.3286C30.6147 15.3286 14.8438 31.0996 14.8438 50.4848C14.8438 69.8701 30.6147 85.641 50 85.641C58.7118 85.641 66.6936 82.4559 72.8421 77.189" stroke="#153862" stroke-width="3.125" stroke-linecap="round"/>
<mask id="mask0" mask-type="alpha" maskUnits="userSpaceOnUse" x="43" y="17" width="35" height="41">
<path d="M77.0508 54.977C77.0508 58.2131 52.6501 57.3208 49.4141 57.3208C46.178 57.3208 43.5547 54.6974 43.5547 51.4614C43.5547 48.2254 43.053 17.2817 46.2891 17.2817C49.5251 17.2817 77.0508 51.741 77.0508 54.977Z" fill="#C4C4C4"/>
</mask>
<g mask="url(#mask0)">
<path d="M29.6049 72.7352C29.9797 72.7352 30.3547 72.5922 30.6407 72.3061L46.4399 56.5069C47.3123 57.0231 48.3287 57.3208 49.4139 57.3208C50.8959 57.3208 52.2504 56.7667 53.2832 55.8559H68.6522C71.0752 55.8559 73.0467 53.8846 73.0467 51.4614C73.0467 49.0382 71.0752 47.0669 68.6522 47.0669H53.8084V26.3638C53.8084 23.9405 51.8369 21.9692 49.4139 21.9692C46.9907 21.9692 45.0194 23.9405 45.0194 26.3638V47.5919C44.1088 48.6249 43.5545 49.9792 43.5545 51.4614C43.5545 52.5466 43.8522 53.563 44.3684 54.4354L28.5692 70.2348C27.9971 70.8069 27.9971 71.7344 28.5692 72.3063C28.8551 72.5922 29.2299 72.7352 29.6049 72.7352ZM49.4139 54.3911C47.7985 54.3911 46.4842 53.0768 46.4842 51.4614C46.4842 49.846 47.7985 48.5317 49.4139 48.5317C51.0293 48.5317 52.3436 49.846 52.3436 51.4614C52.3436 53.0768 51.0293 54.3911 49.4139 54.3911ZM70.117 51.4614C70.117 52.2692 69.46 52.9262 68.6522 52.9262H55.0879C55.2088 52.4579 55.2733 51.9671 55.2733 51.4614C55.2733 50.9557 55.2088 50.4649 55.0879 49.9966H68.6522C69.46 49.9966 70.117 50.6536 70.117 51.4614ZM49.4139 24.8989C50.2217 24.8989 50.8787 25.556 50.8787 26.3638V45.7874C50.4104 45.6665 49.9196 45.602 49.4139 45.602C48.9082 45.602 48.4174 45.6665 47.9491 45.7874V26.3638C47.9491 25.556 48.6061 24.8989 49.4139 24.8989Z" fill="black"/>
</g>
<path d="M50 6.93018C39.5551 6.93018 29.4535 10.6845 21.5557 17.5012C20.9083 18.0599 20.8365 19.0375 21.3953 19.6847C21.9539 20.332 22.9315 20.4036 23.5788 19.8451C30.9146 13.5135 40.2978 10.0265 50 10.0265C72.3088 10.0265 90.4583 28.176 90.4583 50.4848C90.4583 72.7937 72.3088 90.9432 50 90.9432C27.6911 90.9432 9.54161 72.7937 9.54161 50.4848C9.54161 40.7827 13.0287 31.3996 19.3604 24.0635C19.9192 23.4161 19.8471 22.4385 19.2 21.8799C18.5531 21.3212 17.5753 21.3934 17.0165 22.0403C10.1995 29.9384 6.44531 40.0402 6.44531 50.4848C6.44531 74.501 25.9838 94.0395 50 94.0395C74.0161 94.0395 93.5546 74.501 93.5546 50.4848C93.5546 26.4687 74.0161 6.93018 50 6.93018Z" fill="black"/>
</svg>
