<svg width="79" height="79" viewBox="0 0 79 79" fill="none" xmlns="http://www.w3.org/2000/svg">
<g opacity="0.8">
<path d="M66.0035 27.2191C58.4191 23.2103 44.7995 20.5328 33.2026 25.3986C21.5642 30.2819 13.9525 41.9247 11.5209 50.079C11.2808 50.884 11.6427 51.7465 12.3853 52.1392C20.1508 56.246 33.7333 58.7652 45.1863 53.9598C57.0463 48.9836 64.5212 37.143 66.868 29.2795C67.108 28.4744 66.7461 27.6119 66.0035 27.2191ZM50.2267 35.0502C52.7792 41.1335 49.9067 48.1592 43.8233 50.7116C37.7398 53.2641 30.7142 50.3911 28.1619 44.3082C25.6095 38.225 28.482 31.1992 34.5653 28.6468C40.6493 26.0942 47.6746 28.9676 50.2267 35.0502ZM15.4028 49.6622C16.4336 46.9953 19.1208 41.0458 24.204 35.8181C22.4618 42.5494 25.4201 49.6041 31.4441 53.079C25.9032 53.059 20.2113 51.7425 15.4028 49.6622ZM54.1849 43.5402C55.927 36.8089 52.9687 29.7543 46.9447 26.2793C52.4855 26.2994 58.1775 27.616 62.986 29.6961C61.9553 32.3631 59.268 38.3125 54.1849 43.5402Z" fill="#153862"/>
<path d="M33.6724 41.9961C34.9499 45.0409 38.4664 46.4787 41.5112 45.2011C44.556 43.9236 45.9938 40.4071 44.7163 37.3623C43.4387 34.3174 39.9222 32.8797 36.8774 34.1572C33.8326 35.4348 32.3948 38.9512 33.6724 41.9961ZM41.4681 38.7252C41.9941 39.979 41.402 41.4269 40.1483 41.9529C38.8945 42.479 37.4466 41.887 36.9206 40.6332C36.3945 39.3794 36.9865 37.9315 38.2403 37.4054C39.494 36.8794 40.942 37.4714 41.4681 38.7252Z" fill="#153862"/>
<path d="M30.5629 19.1073C31.4598 18.731 31.8819 17.6987 31.5055 16.8018L29.9155 13.0122C29.5392 12.1153 28.5069 11.6932 27.6099 12.0695C26.713 12.4459 26.2909 13.4781 26.6673 14.3751L28.2573 18.1647C28.6336 19.0616 29.6659 19.4837 30.5629 19.1073Z" fill="#153862"/>
<path d="M41.1647 17.2135C42.1298 17.3309 43.0083 16.6439 43.1257 15.6778L43.6971 10.9813C43.8145 10.0158 43.1272 9.13778 42.1614 9.02027C41.1956 8.90292 40.3179 9.59018 40.2004 10.556L39.6291 15.2525C39.5116 16.2179 40.1991 17.096 41.1647 17.2135Z" fill="#153862"/>
<path d="M19.314 25.6687C20.0852 26.2614 21.1909 26.1166 21.7837 25.3453C22.3764 24.5741 22.2315 23.4683 21.4603 22.8756L17.7089 19.9929C16.9376 19.4002 15.8318 19.5451 15.2392 20.3163C14.6465 21.0876 14.7913 22.1933 15.5626 22.786L19.314 25.6687Z" fill="#153862"/>
<path d="M47.826 60.2512C46.9291 60.6275 46.507 61.6598 46.8833 62.5567L48.4734 66.3463C48.8497 67.2432 49.882 67.6653 50.7789 67.289C51.6759 66.9126 52.0979 65.8804 51.7216 64.9834L50.1316 61.1938C49.7552 60.2969 48.7229 59.8748 47.826 60.2512Z" fill="#153862"/>
<path d="M37.2241 62.1452C36.2586 62.0279 35.3806 62.7152 35.2631 63.6808L34.6917 68.3773C34.5743 69.3429 35.2618 70.2209 36.2274 70.3384C37.1931 70.4558 38.071 69.7682 38.1885 68.8027L38.7598 64.1063C38.8773 63.1407 38.1897 62.2626 37.2241 62.1452Z" fill="#153862"/>
<path d="M59.0748 53.6898C58.3035 53.097 57.1977 53.2422 56.6051 54.0131C56.0124 54.7844 56.1572 55.8901 56.9285 56.4828L60.6799 59.3655C61.4511 59.9583 62.5567 59.8136 63.1496 59.0422C63.7423 58.271 63.5975 57.1652 62.8262 56.5725L59.0748 53.6898Z" fill="#153862"/>
</g>
</svg>
