<svg width="28" height="27" viewBox="0 0 28 27" fill="none" xmlns="http://www.w3.org/2000/svg">
<circle cx="13.6496" cy="13.4999" r="13.4999" fill="white"/>
<path d="M19.7242 9.32755C19.7242 8.31681 18.8324 7.42497 17.8216 7.42497H10.1518C9.1411 7.42497 8.24927 8.31681 8.24927 9.32755V16.9973C8.24927 18.0081 9.1411 18.8999 10.1518 18.8999H14.0165V14.5597H12.5895V12.6571H14.0165V11.8841C14.0165 10.5761 14.9678 9.44646 16.1569 9.44646H17.7027V11.349H16.1569C15.9785 11.349 15.8001 11.5274 15.8001 11.8841V12.6571H17.7027V14.5597H15.8001V18.8999H17.8216C18.8324 18.8999 19.7242 18.0081 19.7242 16.9973V9.32755Z" fill="black"/>
</svg>
