<svg width="147" height="28" viewBox="0 0 147 28" fill="none" xmlns="http://www.w3.org/2000/svg">
<path d="M62.7118 8.2958H58.9554L58.2916 10.0187H54.9023L59.2237 0.133301H62.5L66.8213 10.0187H63.3755L62.7118 8.2958ZM61.7939 5.89507L60.8336 3.4096L59.8733 5.89507H61.7939ZM74.3569 4.77943H70.7841V10.0187H67.6066V2.29396H74.3569V4.77943ZM83.1188 6.14926C83.1188 6.19634 83.1046 6.44583 83.0764 6.89773H77.71C77.823 7.18958 78.0113 7.41554 78.2749 7.57558C78.5385 7.72622 78.868 7.80154 79.2635 7.80154C79.6024 7.80154 79.8848 7.75917 80.1108 7.67444C80.3461 7.58971 80.6003 7.44378 80.8734 7.23666L82.5397 8.91717C81.7866 9.74566 80.6615 10.1599 79.1646 10.1599C78.2325 10.1599 77.4135 9.99044 76.7074 9.65152C76.0013 9.30317 75.4552 8.82303 75.0692 8.21107C74.6832 7.59912 74.4902 6.91185 74.4902 6.14926C74.4902 5.37726 74.6785 4.68999 75.0551 4.08746C75.4411 3.4755 75.9636 3.00006 76.6226 2.66114C77.2911 2.32221 78.0395 2.15274 78.868 2.15274C79.6494 2.15274 80.3603 2.30809 81.0005 2.61877C81.6501 2.92945 82.1632 3.38606 82.5397 3.9886C82.9257 4.59114 83.1188 5.31136 83.1188 6.14926ZM78.8963 4.32753C78.5668 4.32753 78.2937 4.41697 78.0772 4.59585C77.8607 4.77473 77.7194 5.02892 77.6535 5.35843H80.139C80.0731 5.03834 79.9319 4.78885 79.7154 4.60997C79.4988 4.42168 79.2258 4.32753 78.8963 4.32753ZM84.2662 2.29396H87.4436V5.00538H89.6184V2.29396H92.7958V10.0187H89.6184V7.50497H87.4436V10.0187H84.2662V2.29396ZM101.608 4.77943H99.2491V10.0187H96.0716V4.77943H93.7132V2.29396H101.608V4.77943ZM106.302 10.1599C105.427 10.1599 104.641 9.99044 103.945 9.65152C103.257 9.31259 102.716 8.83715 102.321 8.22519C101.934 7.61324 101.741 6.92127 101.741 6.14926C101.741 5.37726 101.934 4.68999 102.321 4.08746C102.716 3.4755 103.257 3.00006 103.945 2.66114C104.641 2.32221 105.427 2.15274 106.302 2.15274C107.244 2.15274 108.049 2.35516 108.718 2.75999C109.386 3.16482 109.847 3.72499 110.101 4.44051L107.63 5.65499C107.329 4.97714 106.882 4.63821 106.289 4.63821C105.912 4.63821 105.596 4.77002 105.342 5.03363C105.098 5.29724 104.975 5.66912 104.975 6.14926C104.975 6.63883 105.098 7.01541 105.342 7.27902C105.596 7.54263 105.912 7.67444 106.289 7.67444C106.882 7.67444 107.329 7.33551 107.63 6.65766L110.101 7.87215C109.847 8.58766 109.386 9.14783 108.718 9.55266C108.049 9.95749 107.244 10.1599 106.302 10.1599ZM118.364 4.77943H116.005V10.0187H112.828V4.77943H110.469V2.29396H118.364V4.77943ZM125.848 5.96568C126.696 6.28578 127.119 6.88361 127.119 7.75917C127.119 8.46527 126.842 9.02073 126.286 9.42556C125.731 9.82098 124.916 10.0187 123.843 10.0187H119.282V2.29396H123.617C124.653 2.29396 125.457 2.47284 126.032 2.8306C126.607 3.17894 126.893 3.67321 126.893 4.31341C126.893 4.67116 126.804 4.99126 126.625 5.2737C126.446 5.55614 126.187 5.7868 125.848 5.96568ZM122.078 5.34431H123.335C123.796 5.34431 124.026 5.16073 124.026 4.79355C124.026 4.61468 123.97 4.48287 123.857 4.39814C123.754 4.31341 123.579 4.27104 123.335 4.27104H122.078V5.34431ZM123.56 8.04161C124.021 8.04161 124.253 7.84861 124.253 7.46261C124.253 7.09544 124.021 6.91185 123.56 6.91185H122.078V8.04161H123.56ZM132.145 10.1599C131.288 10.1599 130.517 9.99044 129.829 9.65152C129.151 9.30317 128.62 8.82773 128.233 8.22519C127.847 7.61324 127.655 6.92127 127.655 6.14926C127.655 5.37726 127.847 4.68999 128.233 4.08746C128.62 3.4755 129.151 3.00006 129.829 2.66114C130.517 2.32221 131.288 2.15274 132.145 2.15274C133.011 2.15274 133.783 2.32221 134.461 2.66114C135.148 3.00006 135.681 3.4755 136.057 4.08746C136.443 4.68999 136.636 5.37726 136.636 6.14926C136.636 6.92127 136.443 7.61324 136.057 8.22519C135.681 8.82773 135.148 9.30317 134.461 9.65152C133.783 9.99044 133.011 10.1599 132.145 10.1599ZM132.145 7.67444C132.512 7.67444 132.813 7.54263 133.049 7.27902C133.284 7.006 133.402 6.62941 133.402 6.14926C133.402 5.66912 133.284 5.29724 133.049 5.03363C132.813 4.77002 132.512 4.63821 132.145 4.63821C131.778 4.63821 131.477 4.77002 131.241 5.03363C131.006 5.29724 130.888 5.66912 130.888 6.14926C130.888 6.62941 131.006 7.006 131.241 7.27902C131.477 7.54263 131.778 7.67444 132.145 7.67444ZM60.4947 14.4514C61.4079 14.4514 62.2034 14.6021 62.8813 14.9033C63.5591 15.2046 64.0816 15.6377 64.4488 16.2025C64.816 16.7674 64.9996 17.4265 64.9996 18.1796C64.9996 18.9328 64.816 19.5918 64.4488 20.1567C64.0816 20.7216 63.5591 21.1547 62.8813 21.4559C62.2034 21.7572 61.4079 21.9078 60.4947 21.9078H59.0683V24.3368H55.7355V14.4514H60.4947ZM60.2828 19.3376C60.7347 19.3376 61.0737 19.2388 61.2996 19.0411C61.5256 18.8339 61.6385 18.5468 61.6385 18.1796C61.6385 17.8125 61.5256 17.53 61.2996 17.3323C61.0737 17.1252 60.7347 17.0216 60.2828 17.0216H59.0683V19.3376H60.2828ZM69.1042 16.4709C70.4599 16.4709 71.4955 16.7768 72.211 17.3888C72.9265 17.9913 73.2843 18.9234 73.2843 20.1849V24.3368H70.3186V23.32C69.9515 24.092 69.2218 24.478 68.1297 24.478C67.5178 24.478 66.9953 24.3745 66.5622 24.1673C66.1385 23.9508 65.8137 23.6637 65.5878 23.3059C65.3712 22.9387 65.263 22.5292 65.263 22.0773C65.263 21.3147 65.5548 20.7357 66.1385 20.3403C66.7222 19.9449 67.6072 19.7472 68.7935 19.7472H70.0786C69.975 19.1446 69.4902 18.8434 68.624 18.8434C68.2757 18.8434 67.9226 18.8998 67.5649 19.0128C67.2071 19.1164 66.9011 19.2623 66.6469 19.4506L65.6301 17.3464C66.0726 17.0734 66.6046 16.8616 67.2259 16.7109C67.8567 16.5509 68.4828 16.4709 69.1042 16.4709ZM69.09 22.5574C69.316 22.5574 69.5184 22.4962 69.6973 22.3739C69.8762 22.2515 70.008 22.0679 70.0927 21.8231V21.2865H69.3019C68.6523 21.2865 68.3274 21.503 68.3274 21.9361C68.3274 22.1149 68.3933 22.2656 68.5252 22.388C68.6664 22.5009 68.8547 22.5574 69.09 22.5574ZM80.4878 20.3262C80.9021 20.4768 81.2222 20.698 81.4481 20.9899C81.6835 21.2723 81.8012 21.6066 81.8012 21.9926C81.8012 22.5292 81.6129 22.9905 81.2363 23.3765C80.8597 23.7531 80.3513 24.0402 79.7111 24.238C79.0709 24.4262 78.3601 24.5204 77.5787 24.5204C76.2513 24.5204 75.0462 24.3227 73.9635 23.9273L74.7684 21.8231C75.5687 22.1149 76.4772 22.2609 77.494 22.2609C77.8329 22.2609 78.1012 22.2185 78.2989 22.1338C78.4966 22.049 78.5955 21.9172 78.5955 21.7384C78.5955 21.5877 78.5484 21.4842 78.4543 21.4277C78.3695 21.3618 78.2189 21.3288 78.0024 21.3288H76.2371V19.5495H77.7058C77.9412 19.5495 78.1106 19.5165 78.2142 19.4506C78.3272 19.3847 78.3837 19.2764 78.3837 19.1258C78.3837 18.9752 78.3084 18.8622 78.1577 18.7869C78.0071 18.7116 77.7482 18.6739 77.381 18.6739C76.6749 18.6739 75.8511 18.8339 74.9097 19.154L74.1894 17.1346C75.3851 16.6733 76.529 16.4426 77.6211 16.4426C78.7791 16.4426 79.73 16.6356 80.4737 17.0216C81.2175 17.3982 81.5894 17.949 81.5894 18.6739C81.5894 19.0128 81.4905 19.3282 81.2928 19.6201C81.0951 19.9119 80.8268 20.1473 80.4878 20.3262ZM87.9726 16.4709C88.6504 16.4709 89.2718 16.6356 89.8367 16.9651C90.411 17.2852 90.8629 17.7513 91.1924 18.3632C91.5313 18.9752 91.7008 19.6813 91.7008 20.4815C91.7008 21.2818 91.5313 21.9879 91.1924 22.5998C90.8629 23.2023 90.411 23.6684 89.8367 23.9979C89.2718 24.318 88.6504 24.478 87.9726 24.478C87.1159 24.478 86.4615 24.2568 86.0096 23.8143V27.0765H82.8181V16.6121H85.8543V17.2476C86.3156 16.7298 87.0217 16.4709 87.9726 16.4709ZM87.21 21.9926C87.5772 21.9926 87.8784 21.8608 88.1138 21.5971C88.3492 21.3335 88.4669 20.9617 88.4669 20.4815C88.4669 20.0014 88.3492 19.6295 88.1138 19.3659C87.8784 19.0928 87.5772 18.9563 87.21 18.9563C86.8428 18.9563 86.5416 19.0928 86.3062 19.3659C86.0708 19.6295 85.9531 20.0014 85.9531 20.4815C85.9531 20.9617 86.0708 21.3335 86.3062 21.5971C86.5416 21.8608 86.8428 21.9926 87.21 21.9926ZM95.8312 16.4709C97.1869 16.4709 98.2223 16.7768 98.9382 17.3888C99.6531 17.9913 100.011 18.9234 100.011 20.1849V24.3368H97.0457V23.32C96.6785 24.092 95.9489 24.478 94.8568 24.478C94.2448 24.478 93.7223 24.3745 93.2892 24.1673C92.8656 23.9508 92.5408 23.6637 92.3148 23.3059C92.0983 22.9387 91.99 22.5292 91.99 22.0773C91.99 21.3147 92.2819 20.7357 92.8656 20.3403C93.4493 19.9449 94.3343 19.7472 95.5205 19.7472H96.8056C96.702 19.1446 96.2172 18.8434 95.351 18.8434C95.0027 18.8434 94.6496 18.8998 94.2919 19.0128C93.9341 19.1164 93.6282 19.2623 93.374 19.4506L92.3572 17.3464C92.7997 17.0734 93.3316 16.8616 93.953 16.7109C94.5837 16.5509 95.2098 16.4709 95.8312 16.4709ZM95.8171 22.5574C96.043 22.5574 96.2454 22.4962 96.4243 22.3739C96.6032 22.2515 96.735 22.0679 96.8197 21.8231V21.2865H96.0289C95.3793 21.2865 95.0545 21.503 95.0545 21.9361C95.0545 22.1149 95.1204 22.2656 95.2522 22.388C95.3934 22.5009 95.5817 22.5574 95.8171 22.5574ZM106.41 17.4735C107.549 17.4735 108.434 17.7795 109.065 18.3915C109.695 19.0034 110.011 19.846 110.011 20.9193C110.011 21.6442 109.813 22.2844 109.418 22.8399C109.032 23.3859 108.5 23.8096 107.822 24.1109C107.145 24.4121 106.387 24.5628 105.548 24.5628C104.174 24.5628 103.063 24.1532 102.216 23.3341C101.378 22.5151 100.958 21.2535 100.958 19.5495C100.958 16.3391 102.39 14.475 105.252 13.9572L109.093 13.2652L109.517 15.8777L106.269 16.4567C105.506 16.5885 104.956 16.791 104.616 17.064C104.287 17.337 104.085 17.7371 104.009 18.2644C104.668 17.7371 105.469 17.4735 106.41 17.4735ZM105.548 22.2044C105.934 22.2044 106.231 22.0773 106.439 21.8231C106.654 21.5689 106.763 21.2629 106.763 20.9052C106.763 20.5098 106.65 20.2038 106.424 19.9872C106.207 19.7707 105.916 19.6624 105.548 19.6624C105.171 19.6624 104.87 19.7754 104.645 20.0014C104.418 20.2179 104.306 20.5239 104.306 20.9193C104.306 21.2959 104.418 21.6066 104.645 21.8513C104.88 22.0867 105.181 22.2044 105.548 22.2044ZM114.975 24.478C114.118 24.478 113.347 24.3086 112.659 23.9696C111.981 23.6213 111.45 23.1459 111.064 22.5433C110.678 21.9314 110.485 21.2394 110.485 20.4674C110.485 19.6954 110.678 19.0081 111.064 18.4056C111.45 17.7936 111.981 17.3182 112.659 16.9793C113.347 16.6403 114.118 16.4709 114.975 16.4709C115.841 16.4709 116.613 16.6403 117.292 16.9793C117.978 17.3182 118.511 17.7936 118.887 18.4056C119.273 19.0081 119.466 19.6954 119.466 20.4674C119.466 21.2394 119.273 21.9314 118.887 22.5433C118.511 23.1459 117.978 23.6213 117.292 23.9696C116.613 24.3086 115.841 24.478 114.975 24.478ZM114.975 21.9926C115.342 21.9926 115.644 21.8608 115.88 21.5971C116.115 21.3241 116.233 20.9475 116.233 20.4674C116.233 19.9872 116.115 19.6154 115.88 19.3517C115.644 19.0881 115.342 18.9563 114.975 18.9563C114.609 18.9563 114.307 19.0881 114.071 19.3517C113.836 19.6154 113.718 19.9872 113.718 20.4674C113.718 20.9475 113.836 21.3241 114.071 21.5971C114.307 21.8608 114.609 21.9926 114.975 21.9926ZM127.493 19.0976H125.134V24.3368H121.957V19.0976H119.598V16.6121H127.493V19.0976ZM132.21 21.7666H131.603V24.3368H128.411V16.6121H131.603V19.3235H132.295L133.989 16.6121H137.35L134.865 20.312L137.506 24.3368H133.749L132.21 21.7666ZM138.217 16.6121H141.394V20.1002L144.063 16.6121H147V24.3368H143.823V20.8346L141.168 24.3368H138.217V16.6121Z" fill="white"/>
<path d="M0 0.209961H11.7985C14.466 0.209961 16.8143 0.696522 18.8434 1.66963C20.8953 2.62011 22.4798 3.98926 23.597 5.77707C24.737 7.56488 25.307 9.66953 25.307 12.091C25.307 14.5125 24.737 16.6171 23.597 18.405C22.4798 20.1928 20.8953 21.5732 18.8434 22.5463C16.8143 23.4968 14.466 23.9721 11.7985 23.9721H0V0.209961ZM11.4566 17.726C13.1892 17.726 14.5686 17.2394 15.5946 16.2664C16.6433 15.2706 17.1677 13.8788 17.1677 12.091C17.1677 10.3032 16.6433 8.92273 15.5946 7.94959C14.5686 6.95385 13.1892 6.45599 11.4566 6.45599H8.07087V17.726H11.4566Z" fill="white"/>
<path d="M30.8345 24.3132C29.535 24.3132 28.452 23.9058 27.5857 23.0911C26.7421 22.2538 26.3203 21.1901 26.3203 19.9002C26.3203 18.6102 26.7421 17.5692 27.5857 16.7772C28.452 15.9625 29.535 15.5552 30.8345 15.5552C32.1341 15.5552 33.2057 15.9625 34.0493 16.7772C34.9156 17.5692 35.3488 18.6102 35.3488 19.9002C35.3488 21.1901 34.9156 22.2538 34.0493 23.0911C33.2057 23.9058 32.1341 24.3132 30.8345 24.3132Z" fill="white"/>
<path d="M47.7011 0.211426V23.9735H39.6302V6.25378H35.5264V0.211426H47.7011Z" fill="white"/>
</svg>
