<svg width="30" height="31" viewBox="0 0 30 31" fill="none" xmlns="http://www.w3.org/2000/svg">
<path fill-rule="evenodd" clip-rule="evenodd" d="M15 30.8516C23.2843 30.8516 30 24.1358 30 15.8516C30 7.56729 23.2843 0.851562 15 0.851562C6.71573 0.851562 0 7.56729 0 15.8516C0 24.1358 6.71573 30.8516 15 30.8516ZM15 28.1243C8.222 28.1243 2.72731 22.6296 2.72731 15.8515C2.72731 9.0735 8.222 3.57881 15 3.57881C21.7781 3.57881 27.2728 9.0735 27.2728 15.8515C27.2728 22.6296 21.7781 28.1243 15 28.1243ZM16.763 9.43284L18.6915 11.3613L14.2012 15.8516L18.6915 20.3419L16.763 22.2704L10.3442 15.8516L16.763 9.43284Z" fill="black"/>
</svg>
