<svg width="28" height="27" viewBox="0 0 28 27" fill="none" xmlns="http://www.w3.org/2000/svg">
<circle cx="13.6992" cy="13.4999" r="13.4999" fill="white"/>
<path d="M17.9095 15.3851C18.2637 15.0309 18.3143 14.5249 18.0107 14.0189C17.7577 13.6141 17.3023 13.4117 16.7963 13.5129C16.5939 13.5635 16.3915 13.6647 16.1891 13.8165C14.6206 14.8791 12.4955 14.8285 10.9269 13.7659C10.8257 13.7153 10.7245 13.6647 10.6233 13.6141C10.0667 13.3611 9.51015 13.4623 9.20656 13.9683C8.85237 14.4743 8.90296 15.0309 9.35835 15.4863C9.45955 15.5875 9.56074 15.6381 9.61134 15.7393L9.66194 15.7899C10.3703 16.3464 11.2305 16.7006 12.3437 16.8524L11.6859 17.5102C11.1293 18.0668 10.5221 18.674 9.96554 19.2305C9.81374 19.3823 9.61134 19.6353 9.61134 19.9895C9.61134 20.4449 9.86434 20.9003 10.3197 21.1027C10.4715 21.2039 10.6233 21.2039 10.7751 21.2039C11.0281 21.2039 11.3317 21.1027 11.5341 20.8497C12.2931 20.0907 12.9002 19.4835 13.5074 18.8764C13.558 18.8258 13.558 18.8258 13.558 18.8258C13.558 18.8258 13.6086 18.8258 13.6086 18.8764C14.0134 19.3317 14.4688 19.7365 14.8736 20.1919C15.076 20.3943 15.2784 20.5967 15.4808 20.7991C15.7338 21.0521 15.9361 21.1533 16.2397 21.1533C16.6951 21.2039 17.2011 20.9003 17.4035 20.4449C17.6059 20.0401 17.5047 19.5341 17.1505 19.2305C16.6445 18.7246 16.1385 18.168 15.582 17.662L14.7218 16.8018C15.1772 16.7512 15.6832 16.65 16.1385 16.4476C16.8975 16.1946 17.4541 15.8405 17.9095 15.3851Z" fill="black"/>
<path d="M13.558 13.9683C15.7338 13.9683 17.5047 12.248 17.5047 10.0722C17.5047 9.00966 17.0999 7.99769 16.3409 7.23872C15.582 6.47974 14.6206 6.07495 13.6086 6.07495C11.4329 6.07495 9.71254 7.84589 9.66194 9.97103C9.66194 11.0336 10.0667 11.995 10.8257 12.7539C11.5341 13.5635 12.4955 13.9683 13.558 13.9683ZM12.4449 8.90847C12.7484 8.60488 13.1532 8.45308 13.558 8.45308C14.4688 8.45308 15.1266 9.16146 15.1266 10.0216C15.1266 10.9324 14.4182 11.5902 13.558 11.5902C12.6472 11.5902 11.9895 10.8818 11.9895 10.0216C11.9895 9.61684 12.1413 9.21206 12.4449 8.90847Z" fill="black"/>
<path d="M17.9095 15.3851C18.2637 15.0309 18.3143 14.5249 18.0107 14.0189C17.7577 13.6141 17.3023 13.4117 16.7963 13.5129C16.5939 13.5635 16.3915 13.6647 16.1891 13.8165C14.6206 14.8791 12.4955 14.8285 10.9269 13.7659C10.8257 13.7153 10.7245 13.6647 10.6233 13.6141C10.0667 13.3611 9.51015 13.4623 9.20656 13.9683C8.85237 14.4743 8.90296 15.0309 9.35835 15.4863C9.45955 15.5875 9.56074 15.6381 9.61134 15.7393L9.66194 15.7899C10.3703 16.3464 11.2305 16.7006 12.3437 16.8524L11.6859 17.5102C11.1293 18.0668 10.5221 18.674 9.96554 19.2305C9.81374 19.3823 9.61134 19.6353 9.61134 19.9895C9.61134 20.4449 9.86434 20.9003 10.3197 21.1027C10.4715 21.2039 10.6233 21.2039 10.7751 21.2039C11.0281 21.2039 11.3317 21.1027 11.5341 20.8497C12.2931 20.0907 12.9002 19.4835 13.5074 18.8764C13.558 18.8258 13.558 18.8258 13.558 18.8258C13.558 18.8258 13.6086 18.8258 13.6086 18.8764C14.0134 19.3317 14.4688 19.7365 14.8736 20.1919C15.076 20.3943 15.2784 20.5967 15.4808 20.7991C15.7338 21.0521 15.9361 21.1533 16.2397 21.1533C16.6951 21.2039 17.2011 20.9003 17.4035 20.4449C17.6059 20.0401 17.5047 19.5341 17.1505 19.2305C16.6445 18.7246 16.1385 18.168 15.582 17.662L14.7218 16.8018C15.1772 16.7512 15.6832 16.65 16.1385 16.4476C16.8975 16.1946 17.4541 15.8405 17.9095 15.3851Z" fill="black"/>
</svg>
