<svg width="18" height="20" viewBox="0 0 18 20" fill="none" xmlns="http://www.w3.org/2000/svg">
<path d="M10.9 7.20486C10.9 6.77553 10.7367 6.41153 10.41 6.11286C10.0927 5.8142 9.68667 5.66486 9.192 5.66486C8.38933 5.66486 7.736 6.0102 7.232 6.70086L6.56 5.95886C6.82133 5.52953 7.19467 5.18886 7.68 4.93686C8.16533 4.67553 8.69267 4.54486 9.262 4.54486C10.13 4.54486 10.8207 4.7782 11.334 5.24486C11.8473 5.7022 12.104 6.2762 12.104 6.96686C12.104 7.40553 12.0293 7.79286 11.88 8.12886C11.8427 8.2222 11.8007 8.31086 11.754 8.39486C11.7073 8.47886 11.6513 8.56286 11.586 8.64686C11.5207 8.72153 11.4647 8.78686 11.418 8.84286C11.3807 8.88953 11.3153 8.95486 11.222 9.03886C11.1287 9.11353 11.0633 9.16953 11.026 9.20686C10.998 9.23486 10.928 9.29553 10.816 9.38886C10.704 9.47286 10.634 9.5242 10.606 9.54286C10.55 9.58953 10.4707 9.65486 10.368 9.73886C10.2747 9.81353 10.2 9.8742 10.144 9.92086C10.0973 9.96753 10.032 10.0282 9.948 10.1029C9.864 10.1775 9.79867 10.2429 9.752 10.2989C9.70533 10.3549 9.654 10.4249 9.598 10.5089C9.542 10.5929 9.5 10.6722 9.472 10.7469C9.45333 10.8215 9.43 10.9055 9.402 10.9989C9.38333 11.0922 9.374 11.1949 9.374 11.3069C9.38333 11.4095 9.39733 11.5215 9.416 11.6429L8.408 11.6569C8.24 10.7702 8.45933 10.0749 9.066 9.57086C9.15933 9.4962 9.31333 9.37953 9.528 9.22086C9.752 9.05286 9.92467 8.91753 10.046 8.81486C10.1673 8.70286 10.3027 8.56286 10.452 8.39486C10.6107 8.22686 10.7227 8.04486 10.788 7.84886C10.8627 7.65286 10.9 7.4382 10.9 7.20486ZM8.128 13.7289C8.128 13.5235 8.20267 13.3509 8.352 13.2109C8.50133 13.0615 8.69733 12.9869 8.94 12.9869C9.136 12.9869 9.30867 13.0615 9.458 13.2109C9.60733 13.3602 9.682 13.5329 9.682 13.7289C9.682 13.9529 9.612 14.1442 9.472 14.3029C9.332 14.4522 9.15467 14.5269 8.94 14.5269C8.69733 14.5269 8.50133 14.4522 8.352 14.3029C8.20267 14.1442 8.128 13.9529 8.128 13.7289Z" fill="black"/>
<circle cx="9" cy="9.48486" r="8.5" stroke="#191919"/>
</svg>
