<svg width="30" height="31" viewBox="0 0 30 31" fill="none" xmlns="http://www.w3.org/2000/svg">
<path fill-rule="evenodd" clip-rule="evenodd" d="M15 30.8516C6.71573 30.8516 0 24.1358 0 15.8516C0 7.56729 6.71573 0.851562 15 0.851562C23.2843 0.851562 30 7.56729 30 15.8516C30 24.1358 23.2843 30.8516 15 30.8516ZM15 28.1243C21.778 28.1243 27.2727 22.6296 27.2727 15.8515C27.2727 9.0735 21.778 3.57881 15 3.57881C8.22192 3.57881 2.72724 9.0735 2.72724 15.8515C2.72724 22.6296 8.22192 28.1243 15 28.1243ZM13.237 9.43284L11.3085 11.3613L15.7988 15.8516L11.3085 20.3419L13.237 22.2704L19.6558 15.8516L13.237 9.43284Z" fill="black"/>
</svg>
