<svg width="28" height="27" viewBox="0 0 28 27" fill="none" xmlns="http://www.w3.org/2000/svg">
<circle cx="13.5995" cy="13.4999" r="13.4999" fill="white"/>
<path d="M9.88695 15.5924C9.41446 15.5924 9.00947 15.7274 8.73947 16.0649C8.40197 16.4024 8.26697 16.8074 8.26697 17.2124C8.26697 17.6849 8.40197 18.0899 8.73947 18.3599C9.07697 18.6974 9.48196 18.8324 9.88695 18.8324C10.3595 18.8324 10.7645 18.6974 11.0345 18.3599C11.372 18.0224 11.507 17.6174 11.507 17.2124C11.507 16.7399 11.372 16.3349 11.0345 16.0649C10.7645 15.7274 10.3595 15.5924 9.88695 15.5924Z" fill="black"/>
<path d="M13.7344 13.4324C13.0594 12.7574 12.317 12.2849 11.507 11.8799C10.697 11.4749 9.81945 11.2724 8.87446 11.2049H8.80698C8.67198 11.2049 8.53697 11.2724 8.40197 11.3399C8.26697 11.4749 8.19946 11.6099 8.19946 11.7449V12.8924C8.19946 13.0274 8.26697 13.1624 8.33447 13.2299C8.40197 13.3649 8.53697 13.3649 8.67197 13.4324C10.022 13.5674 11.102 14.1074 12.047 15.0524C12.9919 15.9974 13.5319 17.1449 13.6669 18.4274C13.6669 18.5624 13.7345 18.6974 13.8695 18.7649C14.0045 18.8324 14.0719 18.8999 14.2744 18.8999H15.4219C15.5569 18.8999 15.6919 18.8324 15.8269 18.6974C15.9619 18.5624 15.9619 18.4274 15.9619 18.2924C15.8944 17.3474 15.6244 16.4699 15.2869 15.6599C14.8819 14.7824 14.3419 14.0399 13.7344 13.4324Z" fill="black"/>
<path d="M19.3369 13.9724C18.7294 12.6224 17.8519 11.3399 16.7719 10.3274C15.6919 9.24744 14.4769 8.43745 13.127 7.76245C11.777 7.15495 10.292 6.81745 8.80698 6.74995C8.67198 6.74995 8.53697 6.81745 8.40197 6.88495C8.26697 7.01995 8.19946 7.15495 8.19946 7.28995V8.50495C8.19946 8.63995 8.26697 8.77494 8.33447 8.90994C8.40197 9.04494 8.53697 9.04494 8.67197 9.04494C9.88696 9.11244 11.102 9.38244 12.182 9.92244C13.262 10.4624 14.2744 11.0699 15.0844 11.9474C15.8944 12.7574 16.5694 13.7024 17.1094 14.8499C17.6494 15.9299 17.9194 17.1449 17.9869 18.3599C17.9869 18.4949 18.0544 18.6299 18.1219 18.6974C18.2569 18.7649 18.3244 18.8324 18.5269 18.8324H19.7419C19.8769 18.8324 20.0119 18.7649 20.1469 18.6299C20.2819 18.4949 20.2819 18.3599 20.2819 18.2249C20.2819 16.8074 19.9444 15.3899 19.3369 13.9724Z" fill="black"/>
</svg>
