<svg width="27" height="27" viewBox="0 0 27 27" fill="none" xmlns="http://www.w3.org/2000/svg">
<circle cx="13.4999" cy="13.5001" r="13.4999" fill="white"/>
<path d="M20.6552 10.0576C20.1827 10.2601 19.6427 10.3951 19.1027 10.4626C19.6427 10.1251 20.1152 9.58507 20.3177 8.97757C19.7777 9.31507 19.2377 9.51757 18.5627 9.65257C18.0902 9.11257 17.3477 8.77507 16.6052 8.77507C15.1202 8.77507 13.9053 9.99006 13.9053 11.4751C13.9053 11.6776 13.9053 11.8801 13.9728 12.0826C11.7453 11.9476 9.72028 10.8676 8.37028 9.24757C8.16779 9.65256 8.03279 10.1251 8.03279 10.5976C8.03279 11.5426 8.50529 12.3526 9.24778 12.8251C8.77528 12.8251 8.37028 12.6901 8.03279 12.4876C8.03279 13.77 8.97778 14.9175 10.1928 15.12C9.99027 15.1875 9.72028 15.1875 9.45028 15.1875C9.24778 15.1875 9.11278 15.1875 8.91028 15.12C9.24778 16.2 10.2603 17.01 11.4753 17.01C10.5303 17.7525 9.38278 18.1575 8.10029 18.1575C7.89779 18.1575 7.69529 18.1575 7.42529 18.09C8.64029 18.8325 10.0578 19.305 11.6103 19.305C16.6052 19.305 19.3052 15.1875 19.3052 11.6101V11.2726C19.8452 11.0701 20.3177 10.5976 20.6552 10.0576Z" fill="black"/>
</svg>
