<svg width="28" height="27" viewBox="0 0 28 27" fill="none" xmlns="http://www.w3.org/2000/svg">
<circle cx="13.55" cy="13.4999" r="13.4999" fill="white"/>
<path d="M20.1689 16.9527C20.1689 16.8967 20.1128 16.8967 20.1128 16.8407C19.8887 16.3923 19.3843 15.8319 18.7118 15.2155C18.3756 14.9353 18.2074 14.7111 18.0954 14.5991C17.9272 14.3749 17.9273 14.2068 17.9833 13.9826C18.0393 13.8145 18.2635 13.5343 18.6558 13.0299C18.8799 12.7497 18.992 12.5816 19.1601 12.4135C20.0007 11.2927 20.393 10.5642 20.2809 10.2279L20.2249 10.1719C20.1689 10.1158 20.1128 10.0598 20.0007 10.0598C19.8886 10.0038 19.7205 10.0038 19.5524 10.0598H17.4229C17.3669 10.0598 17.3668 10.0598 17.2548 10.0598C17.1987 10.0598 17.1427 10.0598 17.1427 10.0598H17.0866H17.0306L16.9746 10.1158C16.9185 10.1719 16.9185 10.1719 16.9185 10.2279C16.6944 10.8444 16.4142 11.3487 16.134 11.9091C15.9658 12.1893 15.7977 12.4695 15.6296 12.6937C15.4615 12.9179 15.3494 13.086 15.2373 13.1981C15.1252 13.3101 15.0131 13.3662 14.9571 13.4783C14.9011 13.5343 14.789 13.5903 14.789 13.5343C14.733 13.5343 14.6769 13.5343 14.6769 13.4783C14.6209 13.4222 14.5648 13.3662 14.5088 13.3101C14.4528 13.2541 14.4527 13.142 14.3967 13.0299C14.3967 12.9178 14.3967 12.8058 14.3967 12.7497C14.3967 12.6937 14.3967 12.5256 14.3967 12.4135C14.3967 12.2454 14.3967 12.1333 14.3967 12.0772C14.3967 11.9091 14.3967 11.685 14.3967 11.4608C14.3967 11.2366 14.3967 11.0685 14.3967 10.9564C14.3967 10.8444 14.3967 10.6762 14.3967 10.5642C14.3967 10.396 14.3967 10.284 14.3967 10.2279C14.3967 10.1719 14.3407 10.0598 14.3407 10.0038C14.2846 9.94772 14.2286 9.89168 14.1726 9.83564C14.1165 9.7796 14.0044 9.7796 13.9484 9.72356C13.6682 9.66752 13.332 9.61148 12.9397 9.61148C12.043 9.61148 11.4266 9.66752 11.2024 9.7796C11.0903 9.83564 10.9783 9.89168 10.9222 10.0038C10.8101 10.1158 10.8101 10.1719 10.8662 10.1719C11.1464 10.2279 11.3705 10.34 11.4826 10.5081L11.5387 10.6202C11.5947 10.6762 11.5947 10.7883 11.6507 10.9564C11.7068 11.1246 11.7068 11.2927 11.7068 11.5168C11.7068 11.8531 11.7068 12.1893 11.7068 12.4135C11.7068 12.6937 11.6507 12.8618 11.6507 13.0299C11.6507 13.198 11.5947 13.3101 11.5387 13.3662C11.4826 13.4783 11.4826 13.5343 11.4266 13.5343C11.4266 13.5343 11.4266 13.5903 11.3705 13.5903C11.3145 13.5903 11.2585 13.6464 11.1464 13.6464C11.0903 13.6464 10.9783 13.5903 10.9222 13.5343C10.8101 13.4783 10.6981 13.3662 10.642 13.2541C10.5299 13.142 10.4179 12.9739 10.3058 12.7497C10.1937 12.5256 10.0256 12.3014 9.91349 11.9652L9.80142 11.741C9.74538 11.6289 9.6333 11.4048 9.52122 11.1246C9.40914 10.8444 9.29706 10.6202 9.18498 10.34C9.12894 10.2279 9.0729 10.1719 9.01686 10.1158H8.96082C8.96082 10.1158 8.90477 10.0598 8.84873 10.0598C8.79269 10.0598 8.73666 10.0038 8.68062 10.0038H6.66317C6.43901 10.0038 6.32693 10.0598 6.27089 10.1158L6.21484 10.1719C6.21484 10.1719 6.21484 10.2279 6.21484 10.284C6.21484 10.34 6.21485 10.396 6.27089 10.5081C6.55109 11.1806 6.88733 11.8531 7.22357 12.5256C7.55981 13.142 7.89605 13.7024 8.12022 14.0947C8.40042 14.487 8.62457 14.8793 8.90477 15.2155C9.18498 15.5517 9.35309 15.7759 9.40913 15.888C9.52121 16.0001 9.57725 16.0561 9.63329 16.1121L9.80142 16.2803C9.9135 16.3923 10.0816 16.5605 10.3058 16.7286C10.5299 16.8967 10.8101 17.0648 11.0903 17.2329C11.3705 17.4011 11.7068 17.5132 12.043 17.6252C12.4353 17.7373 12.7715 17.7933 13.1078 17.7373H13.9484C14.1165 17.7373 14.2286 17.6813 14.3407 17.5692L14.3967 17.5131C14.3967 17.4571 14.4528 17.4571 14.4528 17.4011C14.4528 17.345 14.4528 17.289 14.4528 17.1769C14.4528 16.9527 14.4528 16.7846 14.5088 16.6165C14.5648 16.4484 14.5648 16.3363 14.6209 16.2242C14.6769 16.1121 14.733 16.0561 14.789 16.0001C14.845 15.944 14.9011 15.888 14.9011 15.888H14.9571C15.0692 15.8319 15.2373 15.888 15.3494 16.0001C15.5175 16.1121 15.6856 16.2803 15.7977 16.4484C15.9098 16.6165 16.0779 16.7846 16.3021 17.0088C16.5262 17.2329 16.6944 17.4011 16.8064 17.4571L16.9746 17.5692C17.0866 17.6252 17.1987 17.6813 17.3668 17.7373C17.535 17.7933 17.647 17.7933 17.7591 17.7933L19.6645 17.7373C19.8326 17.7373 20.0007 17.6813 20.1128 17.6252C20.2249 17.5692 20.2809 17.5131 20.2809 17.4011C20.2809 17.345 20.2809 17.2329 20.2809 17.1769C20.1688 17.0648 20.1689 17.0088 20.1689 16.9527Z" fill="black"/>
</svg>
